<svg width="205" height="603" viewBox="0 0 205 603" fill="none" xmlns="http://www.w3.org/2000/svg">
<g clip-path="url(#clip0)">
<path fill-rule="evenodd" clip-rule="evenodd" d="M203.68 42.01L152.09 90.11L149.96 148.07L169.99 179.85L203.68 148.53V42.01Z" stroke="#9A8F4C" stroke-width="2.8346" stroke-miterlimit="22.9256" stroke-linecap="round" stroke-linejoin="round"/>
<path fill-rule="evenodd" clip-rule="evenodd" d="M203.68 255.8L150.57 204.21L163.14 187.63L169.99 179.85L203.68 148.53V255.8Z" stroke="#9A8F4C" stroke-width="2.8346" stroke-miterlimit="22.9256" stroke-linecap="round" stroke-linejoin="round"/>
<path fill-rule="evenodd" clip-rule="evenodd" d="M203.68 255.8L150.57 204.21L131.13 297.64L176.37 283.94L203.68 280.23V255.8Z" stroke="#9A8F4C" stroke-width="2.8346" stroke-miterlimit="22.9256" stroke-linecap="round" stroke-linejoin="round"/>
<path fill-rule="evenodd" clip-rule="evenodd" d="M203.68 359.44L155.58 343.05L131.13 297.64L176.37 283.94L203.68 280.23V359.44Z" stroke="#9A8F4C" stroke-width="2.8346" stroke-miterlimit="22.9256" stroke-linecap="round" stroke-linejoin="round"/>
<path fill-rule="evenodd" clip-rule="evenodd" d="M203.68 359.44L174.85 483.62L203.68 500.24V359.44Z" stroke="#9A8F4C" stroke-width="2.8346" stroke-miterlimit="22.9256" stroke-linecap="round" stroke-linejoin="round"/>
<path fill-rule="evenodd" clip-rule="evenodd" d="M203.68 600.99L160.01 553.23L174.85 483.62L203.68 500.24V600.99Z" stroke="#9A8F4C" stroke-width="2.8346" stroke-miterlimit="22.9256" stroke-linecap="round" stroke-linejoin="round"/>
<path fill-rule="evenodd" clip-rule="evenodd" d="M203.68 359.44L155.58 343.05L131.13 297.64L94.58 316.34L103.42 435.47L203.68 359.44Z" stroke="#9A8F4C" stroke-width="2.8346" stroke-miterlimit="22.9256" stroke-linecap="round" stroke-linejoin="round"/>
<path fill-rule="evenodd" clip-rule="evenodd" d="M203.68 316.19L177.12 319.38L155.13 290.37L176.37 283.94L203.68 280.23V316.19Z" stroke="#9A8F4C" stroke-width="2.8346" stroke-miterlimit="22.9256" stroke-linecap="round" stroke-linejoin="round"/>
<path fill-rule="evenodd" clip-rule="evenodd" d="M146.02 189.65L150.57 204.21L131.13 297.64L100.2 246.55L121.14 186.91L132.36 192.23L146.02 189.65Z" stroke="#9A8F4C" stroke-width="2.8346" stroke-miterlimit="22.9256" stroke-linecap="round" stroke-linejoin="round"/>
<path fill-rule="evenodd" clip-rule="evenodd" d="M131.13 297.64L100.2 246.55L51.35 163.45L94.58 316.34L131.13 297.64Z" stroke="#9A8F4C" stroke-width="2.8346" stroke-miterlimit="22.9256" stroke-linecap="round" stroke-linejoin="round"/>
<path fill-rule="evenodd" clip-rule="evenodd" d="M14.9 204.32L31.16 129.26L51.35 163.45L94.58 316.34L14.9 204.32Z" stroke="#9A8F4C" stroke-width="2.8346" stroke-miterlimit="22.9256" stroke-linecap="round" stroke-linejoin="round"/>
<path fill-rule="evenodd" clip-rule="evenodd" d="M14.9 204.32L1.41998 262.78L94.58 316.34L14.9 204.32Z" stroke="#9A8F4C" stroke-width="2.8346" stroke-miterlimit="22.9256" stroke-linecap="round" stroke-linejoin="round"/>
<path fill-rule="evenodd" clip-rule="evenodd" d="M50.41 430.4L1.41998 262.78L94.58 316.34L103.42 435.47L50.41 430.4Z" stroke="#9A8F4C" stroke-width="2.8346" stroke-miterlimit="22.9256" stroke-linecap="round" stroke-linejoin="round"/>
<path fill-rule="evenodd" clip-rule="evenodd" d="M203.68 42.01L152.09 90.11L109.6 64.92L129.63 46.18L203.68 42.01Z" stroke="#9A8F4C" stroke-width="2.8346" stroke-miterlimit="22.9256" stroke-linecap="round" stroke-linejoin="round"/>
<path fill-rule="evenodd" clip-rule="evenodd" d="M31.16 129.26L152.09 90.11L109.6 64.92L34.35 115.06L31.16 129.26Z" stroke="#9A8F4C" stroke-width="2.8346" stroke-miterlimit="22.9256" stroke-linecap="round" stroke-linejoin="round"/>
<path fill-rule="evenodd" clip-rule="evenodd" d="M100.2 246.55L73.19 200.42L103.14 161.82L149.96 148.07L169.99 179.85L163.14 187.63L142.23 169.31L125.54 174.39L100.2 246.55Z" stroke="#9A8F4C" stroke-width="2.8346" stroke-miterlimit="22.9256" stroke-linecap="round" stroke-linejoin="round"/>
<path fill-rule="evenodd" clip-rule="evenodd" d="M24.94 16.82L84.72 22.29L109.6 64.92L34.35 115.06L24.94 16.82Z" stroke="#9A8F4C" stroke-width="2.8346" stroke-miterlimit="22.9256" stroke-linecap="round" stroke-linejoin="round"/>
<path fill-rule="evenodd" clip-rule="evenodd" d="M24.94 16.82L84.72 22.29L109.6 64.92L129.63 46.18L73.34 1.41998L24.94 16.82Z" stroke="#9A8F4C" stroke-width="2.8346" stroke-miterlimit="22.9256" stroke-linecap="round" stroke-linejoin="round"/>
<path fill-rule="evenodd" clip-rule="evenodd" d="M203.68 359.44L103.42 435.47L174.85 483.62L203.68 359.44Z" stroke="#9A8F4C" stroke-width="2.8346" stroke-miterlimit="22.9256" stroke-linecap="round" stroke-linejoin="round"/>
<path fill-rule="evenodd" clip-rule="evenodd" d="M50.41 430.4L103.42 435.47L174.85 483.62L160.01 553.23L50.41 430.4Z" stroke="#9A8F4C" stroke-width="2.8346" stroke-miterlimit="22.9256" stroke-linecap="round" stroke-linejoin="round"/>
<path fill-rule="evenodd" clip-rule="evenodd" d="M31.16 129.26L73.19 200.42L103.14 161.82L149.96 148.07L152.09 90.11L31.16 129.26Z" stroke="#9A8F4C" stroke-width="2.8346" stroke-miterlimit="22.9256" stroke-linecap="round" stroke-linejoin="round"/>
<path fill-rule="evenodd" clip-rule="evenodd" d="M121.14 186.91L125.54 174.39L142.23 169.31L163.14 187.63L150.57 204.21L146.02 189.65L132.36 192.23L121.14 186.91Z" stroke="#9A8F4C" stroke-width="2.8346" stroke-miterlimit="22.9256" stroke-linecap="round" stroke-linejoin="round"/>
</g>
<defs>
<clipPath id="clip0">
<rect width="205.09" height="602.41" fill="white"/>
</clipPath>
</defs>
</svg>
