<svg width="228" height="603" viewBox="0 0 228 603" fill="none" xmlns="http://www.w3.org/2000/svg">
<g clip-path="url(#clip0)">
<path fill-rule="evenodd" clip-rule="evenodd" d="M1.41998 205.16L47.01 202.41L73.67 280.09L57.3 307.13L1.41998 332.83V205.16Z" stroke="#9A8F4C" stroke-width="2.8346" stroke-miterlimit="22.9256" stroke-linecap="round" stroke-linejoin="round"/>
<path fill-rule="evenodd" clip-rule="evenodd" d="M97.85 226.4L47.01 202.41L73.67 280.09L126.21 269.05L138.02 220.69L97.85 226.4Z" stroke="#9A8F4C" stroke-width="2.8346" stroke-miterlimit="22.9256" stroke-linecap="round" stroke-linejoin="round"/>
<path fill-rule="evenodd" clip-rule="evenodd" d="M184.09 133.5L154.9 64.32L148.81 1.42001L169.08 46.46L175.1 82.27L204.85 109.15L207.48 167.19L135.44 307.97L126.21 269.05L138.02 220.69L169.34 196.09L184.09 133.5Z" stroke="#9A8F4C" stroke-width="2.8346" stroke-miterlimit="22.9256" stroke-linecap="round" stroke-linejoin="round"/>
<path fill-rule="evenodd" clip-rule="evenodd" d="M206.75 83.23L169.08 46.46L175.1 82.27L204.85 109.15L207.48 167.19L135.44 307.97L174.76 290.94L222.55 208.89L226.45 127.74L206.75 83.23Z" stroke="#9A8F4C" stroke-width="2.8346" stroke-miterlimit="22.9256" stroke-linecap="round" stroke-linejoin="round"/>
<path fill-rule="evenodd" clip-rule="evenodd" d="M72.91 352.82L57.3 307.13L73.67 280.09L126.21 269.05L135.44 307.97L93.09 326.93L72.91 352.82Z" stroke="#9A8F4C" stroke-width="2.8346" stroke-miterlimit="22.9256" stroke-linecap="round" stroke-linejoin="round"/>
<path fill-rule="evenodd" clip-rule="evenodd" d="M72.91 352.82L57.3 307.13L1.41998 332.83V386.3L34.16 403.16L72.91 352.82Z" stroke="#9A8F4C" stroke-width="2.8346" stroke-miterlimit="22.9256" stroke-linecap="round" stroke-linejoin="round"/>
<path fill-rule="evenodd" clip-rule="evenodd" d="M23.22 461.34L1.41998 456.9V386.3L34.16 403.16L23.22 461.34Z" stroke="#9A8F4C" stroke-width="2.8346" stroke-miterlimit="22.9256" stroke-linecap="round" stroke-linejoin="round"/>
<path fill-rule="evenodd" clip-rule="evenodd" d="M23.22 461.34L54.44 468.95L72.14 483.26L81.68 468.36L76.54 436.96L79.34 368.81L72.91 352.82L34.16 403.16L23.22 461.34Z" stroke="#9A8F4C" stroke-width="2.8346" stroke-miterlimit="22.9256" stroke-linecap="round" stroke-linejoin="round"/>
<path fill-rule="evenodd" clip-rule="evenodd" d="M23.22 461.34L54.44 468.95L72.14 483.26L79 514.07L80.35 561.47L63.35 580.33L37.04 560.29L1.41998 559.27V456.63L23.22 461.34Z" stroke="#9A8F4C" stroke-width="2.8346" stroke-miterlimit="22.9256" stroke-linecap="round" stroke-linejoin="round"/>
<path fill-rule="evenodd" clip-rule="evenodd" d="M31.78 488.75L54.44 468.95L65.67 494.68L57.49 528.35L40.51 543.77L1.41998 542.34V488.35L31.78 488.75Z" stroke="#9A8F4C" stroke-width="2.8346" stroke-miterlimit="22.9256" stroke-linecap="round" stroke-linejoin="round"/>
<path fill-rule="evenodd" clip-rule="evenodd" d="M33.12 600.31L56.39 575.03L37.04 560.29L1.41998 559.27V600.99L33.12 600.31Z" stroke="#9A8F4C" stroke-width="2.8346" stroke-miterlimit="22.9256" stroke-linecap="round" stroke-linejoin="round"/>
<path fill-rule="evenodd" clip-rule="evenodd" d="M108.51 454.67L79 514.07L72.14 483.26L81.68 468.36L76.54 436.96L121.22 370.01L121.07 405.17L108.98 426.38L108.51 454.67Z" stroke="#9A8F4C" stroke-width="2.8346" stroke-miterlimit="22.9256" stroke-linecap="round" stroke-linejoin="round"/>
<path fill-rule="evenodd" clip-rule="evenodd" d="M135.44 307.97L129.26 357.96L76.54 436.96L79.34 368.81L72.91 352.82L93.09 326.93L135.44 307.97Z" stroke="#9A8F4C" stroke-width="2.8346" stroke-miterlimit="22.9256" stroke-linecap="round" stroke-linejoin="round"/>
<path fill-rule="evenodd" clip-rule="evenodd" d="M134.56 315.09L129.26 357.96L120.92 370.45L121.18 378.24L136.1 387.61L192.29 341L205.95 310.36L197.61 280.28L170.95 299.89L134.56 315.09Z" stroke="#9A8F4C" stroke-width="2.8346" stroke-miterlimit="22.9256" stroke-linecap="round" stroke-linejoin="round"/>
<path fill-rule="evenodd" clip-rule="evenodd" d="M48.73 482.3L38.83 494.68L31.2 495.43L23.21 500.96V518.67L44.84 506.17L48.73 482.3Z" stroke="#9A8F4C" stroke-width="2.8346" stroke-miterlimit="22.9256" stroke-linecap="round" stroke-linejoin="round"/>
<path fill-rule="evenodd" clip-rule="evenodd" d="M79.34 368.81L85.6 347.78L108.39 341.01L101.15 366.25L79.34 368.81Z" stroke="#9A8F4C" stroke-width="2.8346" stroke-miterlimit="22.9256" stroke-linecap="round" stroke-linejoin="round"/>
</g>
<defs>
<clipPath id="clip0">
<rect width="227.87" height="602.41" fill="white"/>
</clipPath>
</defs>
</svg>
