<svg width="221" height="14" viewBox="0 0 221 14" fill="none" xmlns="http://www.w3.org/2000/svg">
<path d="M1.786 10V1.67H6.826V10H8.422V0.199999H0.19V10H1.786ZM9.96331 6.64C9.96331 8.964 11.7273 10.182 13.6033 10.182C15.4933 10.182 17.2433 8.964 17.2433 6.64C17.2433 4.316 15.4933 3.098 13.6033 3.098C11.7273 3.098 9.96331 4.316 9.96331 6.64ZM15.7173 6.64C15.7173 7.956 14.8493 8.81 13.6033 8.81C12.3433 8.81 11.4753 7.956 11.4753 6.64C11.4753 5.324 12.3433 4.47 13.6033 4.47C14.8493 4.47 15.7173 5.324 15.7173 6.64ZM21.2331 4.554H23.5011V10H24.9991V3.28H19.8191C19.6931 6.612 19.3851 8.852 18.2511 8.852C18.1111 8.852 17.9711 8.824 17.8171 8.768V9.944C18.1531 10.07 18.4611 10.126 18.7411 10.126C20.5331 10.126 21.0371 7.802 21.2331 4.554ZM28.1596 10L31.7576 5.604V10H33.2556V3.28H31.9676L28.3696 7.676V3.28H26.8716V10H28.1596ZM38.2514 10V4.596H40.5614V3.28H34.4294V4.596H36.7534V10H38.2514ZM43.0209 10L46.6189 5.604V10H48.1169V3.28H46.8289L43.2309 7.676V3.28H41.7329V10H43.0209ZM51.4887 10V7.214H52.5667L54.7787 10H56.5007L53.7987 6.612L56.2347 3.28H54.5267L52.5947 5.94H51.4887V3.28H49.9907V10H51.4887ZM63.1406 8.446V6.038C63.1406 4.008 61.9366 3.098 60.0326 3.098C58.9546 3.098 57.9886 3.364 57.4566 3.546V4.918C58.0586 4.652 58.8846 4.4 59.8786 4.4C61.0266 4.4 61.6426 4.988 61.6426 5.828V6.066C61.1106 5.954 60.4666 5.87 59.8926 5.87C58.4926 5.87 56.8966 6.402 56.8966 8.124C56.8966 9.51 58.0306 10.182 59.2486 10.182C60.2986 10.182 61.1246 9.846 61.7826 9.314C62.0206 9.86 62.5106 10.098 63.1266 10.098C63.4626 10.098 63.7986 10.042 64.0786 9.93V8.852C63.9386 8.894 63.7846 8.936 63.6306 8.936C63.3646 8.936 63.1406 8.824 63.1406 8.446ZM60.1866 6.92C60.6626 6.92 61.2366 7.004 61.6426 7.088V8.222C61.1106 8.754 60.4106 9.02 59.6966 9.02C59.0246 9.02 58.4366 8.684 58.4366 8.026C58.4366 7.186 59.3326 6.92 60.1866 6.92ZM70.0141 10V7.214H71.0921L73.3041 10H75.0261L72.3241 6.612L74.7601 3.28H73.0521L71.1201 5.94H70.0141V3.28H68.5161V10H70.0141ZM75.2465 6.64C75.2465 8.964 77.0105 10.182 78.8865 10.182C80.7765 10.182 82.5265 8.964 82.5265 6.64C82.5265 4.316 80.7765 3.098 78.8865 3.098C77.0105 3.098 75.2465 4.316 75.2465 6.64ZM81.0005 6.64C81.0005 7.956 80.1325 8.81 78.8865 8.81C77.6265 8.81 76.7585 7.956 76.7585 6.64C76.7585 5.324 77.6265 4.47 78.8865 4.47C80.1325 4.47 81.0005 5.324 81.0005 6.64ZM85.477 10V7.298H88.837V10H90.335V3.28H88.837V5.982H85.477V3.28H83.979V10H85.477ZM97.1375 13.08V10.182C99.3635 10.112 101.043 8.768 101.043 6.64C101.043 4.512 99.3635 3.168 97.1375 3.098V0.199999H95.6815V3.098C93.4555 3.168 91.7755 4.512 91.7755 6.64C91.7755 8.768 93.4555 10.112 95.6815 10.182V13.08H97.1375ZM93.2735 6.64C93.2735 5.338 94.1695 4.442 95.6815 4.372V8.908C94.1695 8.838 93.2735 7.942 93.2735 6.64ZM97.1375 4.372C98.6495 4.442 99.5455 5.338 99.5455 6.64C99.5455 7.942 98.6495 8.838 97.1375 8.908V4.372ZM103.779 10L107.377 5.604V10H108.875V3.28H107.587L103.989 7.676V3.28H102.491V10H103.779ZM111.561 11.806V10H116.965V11.806H118.379V8.768H117.385V3.28H112.135C112.163 5.618 111.883 7.326 111.071 8.768H110.147V11.806H111.561ZM113.535 4.512H115.873V8.768H112.639C113.199 7.578 113.479 6.318 113.535 4.512ZM119.188 6.64C119.188 9.006 120.938 10.182 122.996 10.182C123.934 10.182 124.788 10.014 125.404 9.72V8.432C124.83 8.712 124.088 8.908 123.276 8.908C122.044 8.908 120.868 8.404 120.7 7.2H125.754C126.188 5.254 125.264 3.098 122.59 3.098C121.036 3.098 119.188 4.204 119.188 6.64ZM124.41 6.08H120.686C120.742 4.946 121.652 4.344 122.66 4.344C124.13 4.344 124.494 5.492 124.41 6.08ZM134.461 11.806V8.712H133.453V3.28H131.955V8.684H128.749V3.28H127.251V10H133.047V11.806H134.461ZM137.124 10L140.722 5.604V10H142.22V3.28H140.932L137.334 7.676V3.28H135.836V10H137.124ZM143.674 6.64C143.674 8.964 145.438 10.182 147.314 10.182C149.204 10.182 150.954 8.964 150.954 6.64C150.954 4.316 149.204 3.098 147.314 3.098C145.438 3.098 143.674 4.316 143.674 6.64ZM149.428 6.64C149.428 7.956 148.56 8.81 147.314 8.81C146.054 8.81 145.186 7.956 145.186 6.64C145.186 5.324 146.054 4.47 147.314 4.47C148.56 4.47 149.428 5.324 149.428 6.64ZM153.905 10V7.298H157.265V10H158.763V3.28H157.265V5.982H153.905V3.28H152.407V10H153.905ZM166.363 8.446V6.038C166.363 4.008 165.159 3.098 163.255 3.098C162.177 3.098 161.211 3.364 160.679 3.546V4.918C161.281 4.652 162.107 4.4 163.101 4.4C164.249 4.4 164.865 4.988 164.865 5.828V6.066C164.333 5.954 163.689 5.87 163.115 5.87C161.715 5.87 160.119 6.402 160.119 8.124C160.119 9.51 161.253 10.182 162.471 10.182C163.521 10.182 164.347 9.846 165.005 9.314C165.243 9.86 165.733 10.098 166.349 10.098C166.685 10.098 167.021 10.042 167.301 9.93V8.852C167.161 8.894 167.007 8.936 166.853 8.936C166.587 8.936 166.363 8.824 166.363 8.446ZM163.409 6.92C163.885 6.92 164.459 7.004 164.865 7.088V8.222C164.333 8.754 163.633 9.02 162.919 9.02C162.247 9.02 161.659 8.684 161.659 8.026C161.659 7.186 162.555 6.92 163.409 6.92ZM171.104 4.554H173.372V10H174.87V3.28H169.69C169.564 6.612 169.256 8.852 168.122 8.852C167.982 8.852 167.842 8.824 167.688 8.768V9.944C168.024 10.07 168.332 10.126 168.612 10.126C170.404 10.126 170.908 7.802 171.104 4.554ZM180.075 10C181.769 10 182.735 9.02 182.735 7.76C182.735 6.486 181.769 5.52 180.075 5.52H178.241V3.28H176.743V10H180.075ZM178.241 6.696H179.781C180.663 6.696 181.209 7.06 181.209 7.76C181.209 8.446 180.663 8.81 179.781 8.81H178.241V6.696ZM185.541 10V7.298H188.901V10H190.399V3.28H188.901V5.982H185.541V3.28H184.043V10H185.541ZM191.854 6.64C191.854 8.964 193.618 10.182 195.494 10.182C197.384 10.182 199.134 8.964 199.134 6.64C199.134 4.316 197.384 3.098 195.494 3.098C193.618 3.098 191.854 4.316 191.854 6.64ZM197.608 6.64C197.608 7.956 196.74 8.81 195.494 8.81C194.234 8.81 193.366 7.956 193.366 6.64C193.366 5.324 194.234 4.47 195.494 4.47C196.74 4.47 197.608 5.324 197.608 6.64ZM200.166 6.696C200.166 9.09 202 10.182 203.792 10.182C204.646 10.182 205.374 10.028 206.018 9.72V8.334C205.486 8.642 204.772 8.852 204.058 8.852C202.854 8.852 201.692 8.166 201.692 6.64C201.692 5.058 202.896 4.428 204.086 4.428C204.772 4.428 205.458 4.638 205.948 4.988V3.616C205.36 3.266 204.632 3.098 203.876 3.098C202.084 3.098 200.166 4.19 200.166 6.696ZM210.64 10V4.596H212.95V3.28H206.818V4.596H209.142V10H210.64ZM215.41 10L219.008 5.604V10H220.506V3.28H219.218L215.62 7.676V3.28H214.122V10H215.41Z" fill="black"/>
</svg>
