<svg width="100" height="24" viewBox="0 0 100 24" fill="none" xmlns="http://www.w3.org/2000/svg">
<g clip-path="url(#clip0)">
<path d="M34.1883 7.36523H39.4211L39.0143 8.56422H35.5886V11.8293H38.9415V13.0198H35.5822V17.6872H34.1883V7.36523Z" fill="black"/>
<path d="M41.0161 7.86621C41.0161 7.62942 41.1102 7.40233 41.2776 7.23489C41.4451 7.06745 41.6722 6.97339 41.909 6.97339C42.1457 6.97339 42.3728 7.06745 42.5403 7.23489C42.7077 7.40233 42.8018 7.62942 42.8018 7.86621C42.8027 7.98497 42.7797 8.10271 42.7342 8.21242C42.6887 8.32213 42.6216 8.42158 42.5369 8.50486C42.4523 8.58814 42.3517 8.65356 42.2413 8.69722C42.1308 8.74088 42.0127 8.7619 41.894 8.75903C41.7766 8.76207 41.6598 8.74094 41.551 8.69695C41.4421 8.65297 41.3434 8.58706 41.2611 8.50333C41.1788 8.4196 41.1145 8.31983 41.0724 8.21023C41.0303 8.10062 41.0111 7.98352 41.0161 7.86621ZM41.2045 10.277H42.5834V17.6851H41.2045V10.277Z" fill="black"/>
<path d="M44.7651 10.2771H45.9234L46.0969 11.1849C46.8955 10.5276 47.7241 10.0887 48.6661 10.0887C49.8416 10.0887 50.9207 10.7781 50.9207 12.72V17.6872H49.544V13.1761C49.544 12.1269 49.2935 11.3112 48.2743 11.3112C47.5228 11.3112 46.8013 11.7501 46.1333 12.3153V17.6872H44.7566L44.7651 10.2771Z" fill="black"/>
<path d="M52.6121 14.0539C52.6121 11.8464 54.1108 10.0908 56.3718 10.0908C57.0334 10.0825 57.6859 10.2448 58.2666 10.5618V11.7758C57.7396 11.4203 57.1166 11.2343 56.481 11.2427C54.963 11.2427 54.038 12.4181 54.038 13.9832C54.038 15.7218 54.963 16.7088 56.3932 16.7088C57.0194 16.6994 57.6314 16.5203 58.1638 16.1906L58.5706 17.1627C57.8681 17.6138 57.0504 17.8532 56.2155 17.8521C53.8817 17.8435 52.6121 16.1521 52.6121 14.0539Z" fill="black"/>
<path d="M59.3329 13.9747C59.3329 11.7801 60.7267 10.0908 62.8549 10.0908C64.9831 10.0908 66.3726 11.7758 66.3726 13.9747C66.3726 16.1735 64.9788 17.8435 62.8485 17.8435C60.7181 17.8435 59.3329 16.1521 59.3329 13.9747ZM64.9381 13.9747C64.9381 12.3774 64.1545 11.2341 62.8549 11.2341C61.5553 11.2341 60.7567 12.3774 60.7567 13.9747C60.7567 15.5719 61.5403 16.7002 62.8399 16.7002C64.1395 16.7002 64.9381 15.5569 64.9381 13.9747Z" fill="black"/>
<path d="M68.0855 10.2771H69.2438L69.4172 11.1849C70.2158 10.5276 71.0444 10.0887 71.9865 10.0887C73.1619 10.0887 74.2431 10.7781 74.2431 12.72V17.6872H72.8643V13.1761C72.8643 12.1269 72.6138 11.3112 71.5968 11.3112C70.8432 11.3112 70.1238 11.7501 69.4665 12.3153V17.6872H68.0855V10.2771Z" fill="black"/>
<path d="M76.8317 16.0258V11.3904H75.5641V10.2771H76.8317V8.58562L78.2105 8.15741V10.2771H80.435L80.0582 11.3883H78.2105V15.7603C78.2105 16.4176 78.476 16.7002 78.962 16.7002C79.3876 16.683 79.7998 16.5473 80.1524 16.3084L80.6063 17.2633C80.0254 17.6453 79.3446 17.8471 78.6494 17.8435C77.5061 17.8435 76.8317 17.1841 76.8317 16.0258Z" fill="black"/>
<path d="M82.7517 14.2873C82.7667 15.6811 83.6295 16.7152 85.0854 16.7152C85.7319 16.7078 86.3657 16.5353 86.9267 16.2142L87.3549 17.1691C86.6233 17.6135 85.783 17.8469 84.927 17.8435C82.4691 17.8435 81.3407 16.0429 81.3407 13.9276C81.3407 11.673 82.5783 10.0908 84.4731 10.0908C86.415 10.0908 87.5262 11.5788 87.5262 13.9447V14.2894L82.7517 14.2873ZM86.1046 13.2531C86.0874 12.2211 85.5864 11.187 84.4752 11.187C83.4047 11.187 82.7624 12.1269 82.7517 13.2531H86.1046Z" fill="black"/>
<path d="M89.1363 16.1521C89.7099 16.5117 90.3714 16.7065 91.0483 16.7152C91.8769 16.7152 92.547 16.4176 92.547 15.6447C92.547 14.1459 89.0699 14.6448 89.0699 12.1847C89.0699 11.0093 89.9927 10.0865 91.6692 10.0865C92.3329 10.0884 92.9908 10.2103 93.6111 10.4462V11.6366C93.0223 11.3612 92.3813 11.2151 91.7313 11.2084C91.044 11.2084 90.4317 11.4225 90.4317 12.1162C90.4317 13.6149 93.9087 13.0861 93.9087 15.6233C93.9087 17.1434 92.6241 17.8328 91.089 17.8328C90.2446 17.8399 89.4149 17.6116 88.6931 17.1734L89.1363 16.1521Z" fill="black"/>
<path d="M96.2253 16.0258V11.3904H94.9557V10.2771H96.2253V8.58562L97.6042 8.15741V10.2771H99.8287L99.4519 11.3904H97.6042V15.7603C97.6042 16.4176 97.8697 16.7002 98.3557 16.7002C98.7812 16.683 99.1935 16.5473 99.5461 16.3084L100 17.2633C99.4191 17.6453 98.7383 17.8471 98.0431 17.8435C96.8998 17.8435 96.2253 17.1841 96.2253 16.0258Z" fill="black"/>
<path d="M11.9235 0C9.56525 0 7.25996 0.699302 5.29914 2.00948C3.33833 3.31965 1.81006 5.18185 0.907599 7.36059C0.00513571 9.53933 -0.23099 11.9367 0.229082 14.2497C0.689154 16.5626 1.82476 18.6872 3.49229 20.3547C5.15983 22.0223 7.2844 23.1579 9.59733 23.6179C11.9103 24.078 14.3077 23.8419 16.4864 22.9394C18.6652 22.037 20.5274 20.5087 21.8375 18.5479C23.1477 16.5871 23.847 14.2818 23.847 11.9235C23.847 8.76121 22.5908 5.72841 20.3547 3.49232C18.1186 1.25622 15.0858 0 11.9235 0V0ZM16.0579 6.57945H11.035V10.898H15.1179V11.8315H11.035V12.765H14.1844V13.7027H11.035V19.2695H9.63471V13.7027H7.64782V12.765H9.63471V11.8315H7.64782V10.898H9.63471V5.38903H16.4604L16.0579 6.57945Z" fill="black"/>
</g>
<defs>
<clipPath id="clip0">
<rect width="100" height="23.847" fill="white"/>
</clipPath>
</defs>
</svg>
